<?xml version="1.0" encoding="UTF-8"?>
<svg xmlns="http://www.w3.org/2000/svg" xmlns:xlink="http://www.w3.org/1999/xlink" width="48pt" height="48pt" viewBox="0 0 48 48" version="1.2">
<defs>
<clipPath id="clip1">
  <path d="M 2 2 L 47 2 L 47 45.960938 L 2 45.960938 Z M 2 2 "/>
</clipPath>
</defs>
<g id="surface1">
<g clip-path="url(#clip1)" clip-rule="nonzero">
<path style=" stroke:none;fill-rule:nonzero;fill:rgb(100%,100%,100%);fill-opacity:1;" d="M 22.117188 2.699219 C 11.933594 3.808594 3.742188 12.015625 2.632812 22 C 1.304688 33.09375 8.167969 42.632812 17.910156 45.742188 L 17.910156 40.636719 C 17.910156 40.636719 17.027344 40.859375 15.917969 40.859375 C 12.820312 40.859375 11.492188 38.195312 11.269531 36.644531 C 11.046875 35.757812 10.605469 35.089844 9.941406 34.425781 C 9.277344 34.203125 9.054688 34.203125 9.054688 33.980469 C 9.054688 33.539062 9.71875 33.539062 9.941406 33.539062 C 11.269531 33.539062 12.375 35.089844 12.820312 35.757812 C 13.925781 37.53125 15.253906 37.976562 15.917969 37.976562 C 16.804688 37.976562 17.46875 37.753906 17.910156 37.53125 C 18.132812 35.980469 18.796875 34.425781 20.125 33.539062 C 15.03125 32.429688 11.269531 29.542969 11.269531 24.664062 C 11.269531 22.222656 12.375 19.78125 13.925781 18.007812 C 13.703125 17.5625 13.484375 16.453125 13.484375 14.902344 C 13.484375 14.015625 13.484375 12.683594 14.148438 11.351562 C 14.148438 11.351562 17.246094 11.351562 20.347656 14.234375 C 21.453125 13.792969 23.003906 13.570312 24.554688 13.570312 C 26.101562 13.570312 27.652344 13.792969 28.980469 14.234375 C 31.859375 11.351562 35.179688 11.351562 35.179688 11.351562 C 35.625 12.683594 35.625 14.015625 35.625 14.902344 C 35.625 16.675781 35.402344 17.5625 35.179688 18.007812 C 36.730469 19.78125 37.839844 22 37.839844 24.664062 C 37.839844 29.542969 34.074219 32.429688 28.980469 33.539062 C 30.308594 34.648438 31.195312 36.644531 31.195312 38.640625 L 31.195312 45.960938 C 40.273438 43.078125 46.695312 34.648438 46.695312 24.886719 C 46.695312 11.574219 35.402344 1.144531 22.117188 2.699219 Z M 22.117188 2.699219 "/>
</g>
</g>
</svg>
