<?xml version="1.0" encoding="UTF-8"?>
<svg xmlns="http://www.w3.org/2000/svg" xmlns:xlink="http://www.w3.org/1999/xlink" width="45pt" height="44.999999pt" viewBox="0 0 45 44.999999" version="1.2">
<defs>
<clipPath id="clip1">
  <path d="M 35 19 L 41.183594 19 L 41.183594 22 L 35 22 Z M 35 19 "/>
</clipPath>
</defs>
<style type="text/css">
  path.gear{
  stroke:none;
  fill-rule:nonzero;
  fill:rgb(21.958923%,20.779419%,21.179199%);
  fill-opacity:1;
  -webkit-animation:spin 4s linear infinite;
  -moz-animation:spin 4s linear infinite;
  animation:spin 4s linear infinite;
  transform-origin: 17.52734375px 20.421875px;
}
@-moz-keyframes spin { 100% { -moz-transform: rotate(360deg); } }
@-webkit-keyframes spin { 100% { -webkit-transform: rotate(360deg); } }
@keyframes spin { 100% { -webkit-transform: rotate(360deg); transform:rotate(360deg); } }
</style>



<g id="surface1">
<path style=" stroke:none;fill-rule:nonzero;fill:rgb(93.728638%,62.748718%,4.309082%);fill-opacity:1;" d="M 29.160156 11.054688 C 29.160156 11.054688 28.484375 10.507812 27.878906 10.105469 C 25.355469 8.429688 22.992188 7.859375 20.890625 7.902344 C 18.789062 7.859375 16.429688 8.429688 13.902344 10.105469 C 13.296875 10.507812 12.625 11.054688 12.625 11.054688 C 3.683594 18.878906 9.710938 28.402344 13.667969 32.628906 C 13.851562 32.828125 14.03125 33.015625 14.199219 33.1875 C 15.117188 34.226562 16.964844 36.738281 17.710938 40.652344 L 24.070312 40.652344 C 24.816406 36.738281 26.667969 34.226562 27.582031 33.1875 C 27.75 33.015625 27.929688 32.828125 28.113281 32.628906 C 32.070312 28.402344 38.101562 18.878906 29.160156 11.054688 "/>
<path style=" stroke:none;fill-rule:nonzero;fill:rgb(21.958923%,20.779419%,21.179199%);fill-opacity:1;" d="M 23.78125 41.960938 C 23.78125 43.589844 22.488281 44.910156 20.890625 44.910156 C 19.296875 44.910156 18.003906 43.589844 18.003906 41.960938 C 18.003906 40.335938 19.296875 39.015625 20.890625 39.015625 C 22.488281 39.015625 23.78125 40.335938 23.78125 41.960938 "/>
<path style=" stroke:none;fill-rule:nonzero;fill:rgb(21.958923%,20.779419%,21.179199%);fill-opacity:1;" d="M 25.933594 41.335938 C 25.933594 41.785156 25.570312 42.148438 25.125 42.148438 L 16.761719 42.148438 C 16.316406 42.148438 15.953125 41.785156 15.953125 41.335938 C 15.953125 40.890625 16.316406 40.523438 16.761719 40.523438 L 25.125 40.523438 C 25.570312 40.523438 25.933594 40.890625 25.933594 41.335938 "/>
<path style=" stroke:none;fill-rule:nonzero;fill:rgb(21.958923%,20.779419%,21.179199%);fill-opacity:1;" d="M 25.933594 39.828125 C 25.933594 40.273438 25.570312 40.640625 25.125 40.640625 L 16.761719 40.640625 C 16.316406 40.640625 15.953125 40.273438 15.953125 39.828125 C 15.953125 39.378906 16.316406 39.015625 16.761719 39.015625 L 25.125 39.015625 C 25.570312 39.015625 25.933594 39.378906 25.933594 39.828125 "/>
<path style=" stroke:none;fill-rule:nonzero;fill:rgb(21.958923%,20.779419%,21.179199%);fill-opacity:1;" d="M 25.933594 42.816406 C 25.933594 43.265625 25.570312 43.628906 25.125 43.628906 L 16.761719 43.628906 C 16.316406 43.628906 15.953125 43.265625 15.953125 42.816406 C 15.953125 42.371094 16.316406 42.003906 16.761719 42.003906 L 25.125 42.003906 C 25.570312 42.003906 25.933594 42.371094 25.933594 42.816406 "/>
<path style=" stroke:none;fill-rule:nonzero;fill:rgb(93.728638%,62.748718%,4.309082%);fill-opacity:1;" d="M 21.753906 5.601562 L 20.03125 5.601562 L 20.03125 0.0898438 L 21.753906 0.0898438 L 21.753906 5.601562 "/>
<path style=" stroke:none;fill-rule:nonzero;fill:rgb(93.728638%,62.748718%,4.309082%);fill-opacity:1;" d="M 30.753906 31.636719 L 31.972656 30.414062 L 35.855469 34.308594 L 34.636719 35.53125 L 30.753906 31.636719 "/>
<path style=" stroke:none;fill-rule:nonzero;fill:rgb(93.728638%,62.748718%,4.309082%);fill-opacity:1;" d="M 31.972656 10.722656 L 30.753906 9.5 L 34.636719 5.605469 L 35.855469 6.824219 L 31.972656 10.722656 "/>
<g clip-path="url(#clip1)" clip-rule="nonzero">
<path style=" stroke:none;fill-rule:nonzero;fill:rgb(93.728638%,62.748718%,4.309082%);fill-opacity:1;" d="M 35.679688 21.433594 L 35.679688 19.707031 L 41.171875 19.707031 L 41.171875 21.433594 L 35.679688 21.433594 "/>
</g>
<path style=" stroke:none;fill-rule:nonzero;fill:rgb(21.958923%,20.779419%,21.179199%);fill-opacity:1;" d="M 27.839844 28.074219 L 22.066406 28.074219 L 22.066406 22.160156 L 27.839844 22.160156 L 27.839844 28.074219 "/>
<path class="gear" d="M 24.007812 21.304688 L 24.007812 19.546875 L 21.964844 19.546875 C 21.847656 18.941406 21.613281 18.382812 21.285156 17.894531 L 22.726562 16.445312 L 21.488281 15.203125 L 20.046875 16.652344 C 19.554688 16.324219 19 16.089844 18.402344 15.96875 L 18.402344 13.917969 L 16.652344 13.917969 L 16.652344 15.96875 C 16.050781 16.089844 15.496094 16.324219 15.007812 16.652344 L 13.5625 15.203125 L 12.324219 16.445312 L 13.769531 17.894531 C 13.441406 18.382812 13.207031 18.941406 13.085938 19.546875 L 11.046875 19.546875 L 11.046875 21.304688 L 13.085938 21.304688 C 13.207031 21.902344 13.441406 22.460938 13.769531 22.949219 L 12.324219 24.398438 L 13.5625 25.644531 L 15.007812 24.195312 C 15.496094 24.523438 16.050781 24.757812 16.652344 24.875 L 16.652344 26.925781 L 18.402344 26.925781 L 18.402344 24.875 C 19 24.757812 19.554688 24.523438 20.046875 24.195312 L 21.488281 25.644531 L 22.726562 24.398438 L 21.285156 22.949219 C 21.613281 22.460938 21.847656 21.902344 21.964844 21.304688 L 24.007812 21.304688 "/>
<path style=" stroke:none;fill-rule:nonzero;fill:rgb(56.079102%,54.119873%,54.119873%);fill-opacity:1;" d="M 21.03125 20.425781 C 21.03125 22.363281 19.460938 23.941406 17.527344 23.941406 C 15.589844 23.941406 14.023438 22.363281 14.023438 20.425781 C 14.023438 18.480469 15.589844 16.90625 17.527344 16.90625 C 19.460938 16.90625 21.03125 18.480469 21.03125 20.425781 "/>
<path style=" stroke:none;fill-rule:nonzero;fill:rgb(21.958923%,20.779419%,21.179199%);fill-opacity:1;" d="M 25.863281 22.417969 L 25.304688 22.417969 L 25.304688 18.746094 L 25.863281 18.746094 L 25.863281 22.417969 "/>
<path style=" stroke:none;fill-rule:nonzero;fill:rgb(21.958923%,20.779419%,21.179199%);fill-opacity:1;" d="M 26.472656 18.746094 C 26.472656 19.238281 26.078125 19.636719 25.585938 19.636719 C 25.089844 19.636719 24.695312 19.238281 24.695312 18.746094 C 24.695312 18.25 25.089844 17.851562 25.585938 17.851562 C 26.078125 17.851562 26.472656 18.25 26.472656 18.746094 "/>
<path style=" stroke:none;fill-rule:nonzero;fill:rgb(21.958923%,20.779419%,21.179199%);fill-opacity:1;" d="M 26.289062 24.019531 L 26.289062 23.460938 L 29.949219 23.460938 L 29.949219 24.019531 L 26.289062 24.019531 "/>
<path style=" stroke:none;fill-rule:nonzero;fill:rgb(21.958923%,20.779419%,21.179199%);fill-opacity:1;" d="M 29.949219 24.632812 C 29.460938 24.632812 29.058594 24.234375 29.058594 23.738281 C 29.058594 23.246094 29.460938 22.84375 29.949219 22.84375 C 30.441406 22.84375 30.839844 23.246094 30.839844 23.738281 C 30.839844 24.234375 30.441406 24.632812 29.949219 24.632812 "/>
<path style=" stroke:none;fill-rule:nonzero;fill:rgb(21.958923%,20.779419%,21.179199%);fill-opacity:1;" d="M 26.289062 26.425781 L 26.289062 25.867188 L 29.949219 25.867188 L 29.949219 26.425781 L 26.289062 26.425781 "/>
<path style=" stroke:none;fill-rule:nonzero;fill:rgb(21.958923%,20.779419%,21.179199%);fill-opacity:1;" d="M 29.949219 27.042969 C 29.460938 27.042969 29.058594 26.640625 29.058594 26.148438 C 29.058594 25.652344 29.460938 25.253906 29.949219 25.253906 C 30.441406 25.253906 30.839844 25.652344 30.839844 26.148438 C 30.839844 26.640625 30.441406 27.042969 29.949219 27.042969 "/>
<path style=" stroke:none;fill-rule:nonzero;fill:rgb(21.958923%,20.779419%,21.179199%);fill-opacity:1;" d="M 23.113281 26.792969 L 23.671875 26.792969 L 23.671875 30.46875 L 23.113281 30.46875 L 23.113281 26.792969 "/>
<path style=" stroke:none;fill-rule:nonzero;fill:rgb(21.958923%,20.779419%,21.179199%);fill-opacity:1;" d="M 26.785156 29.90625 L 26.785156 30.46875 L 23.121094 30.46875 L 23.121094 29.90625 L 26.785156 29.90625 "/>
<path style=" stroke:none;fill-rule:nonzero;fill:rgb(21.958923%,20.779419%,21.179199%);fill-opacity:1;" d="M 25.894531 30.1875 C 25.894531 29.695312 26.292969 29.292969 26.785156 29.292969 C 27.277344 29.292969 27.671875 29.695312 27.671875 30.1875 C 27.671875 30.679688 27.277344 31.082031 26.785156 31.082031 C 26.292969 31.082031 25.894531 30.679688 25.894531 30.1875 "/>
<path style="fill:none;stroke-width:40;stroke-linecap:round;stroke-linejoin:round;stroke:rgb(90.979004%,90.979004%,90.979004%);stroke-opacity:1;stroke-miterlimit:10;" d="M 1846.100261 1322.005035 L 2087.220259 1322.005035 " transform="matrix(0.0228102,0,0,-0.0228886,-23.918545,71.161227)"/>
</g>
</svg>
