<?xml version="1.0" encoding="UTF-8"?>
<svg xmlns="http://www.w3.org/2000/svg" xmlns:xlink="http://www.w3.org/1999/xlink" width="48pt" height="48pt" viewBox="0 0 48 48" version="1.2">
<defs>
<clipPath id="clip1">
  <path d="M 0.488281 2.984375 L 47.507812 2.984375 L 47.507812 45.308594 L 0.488281 45.308594 Z M 0.488281 2.984375 "/>
</clipPath>
</defs>
<g id="surface1">
<g clip-path="url(#clip1)" clip-rule="nonzero">
<path style=" stroke:none;fill-rule:nonzero;fill:rgb(0%,0%,0%);fill-opacity:1;" d="M 2.550781 2.984375 C 1.421875 2.984375 0.507812 3.886719 0.507812 5 L 0.507812 34.222656 C 0.507812 35.335938 1.421875 36.238281 2.550781 36.238281 L 45.449219 36.238281 C 46.578125 36.238281 47.492188 35.335938 47.492188 34.222656 L 47.492188 5 C 47.492188 3.886719 46.578125 2.984375 45.449219 2.984375 Z M 2.550781 5 L 45.449219 5 L 45.453125 28.175781 L 2.550781 28.175781 Z M 27.011719 8.011719 C 26.808594 8.019531 26.625 8.085938 26.460938 8.207031 C 26.292969 8.328125 26.179688 8.484375 26.109375 8.675781 L 19.980469 24.800781 C 19.925781 24.925781 19.898438 25.058594 19.902344 25.195312 C 19.902344 25.332031 19.929688 25.460938 19.984375 25.589844 C 20.039062 25.714844 20.117188 25.824219 20.21875 25.917969 C 20.316406 26.011719 20.433594 26.085938 20.5625 26.132812 C 20.691406 26.179688 20.828125 26.203125 20.964844 26.195312 C 21.105469 26.191406 21.238281 26.15625 21.363281 26.097656 C 21.488281 26.039062 21.59375 25.960938 21.6875 25.855469 C 21.78125 25.753906 21.847656 25.636719 21.890625 25.507812 L 28.019531 9.382812 C 28.082031 9.222656 28.105469 9.058594 28.082031 8.890625 C 28.058594 8.71875 28 8.566406 27.894531 8.425781 C 27.792969 8.285156 27.664062 8.179688 27.507812 8.105469 C 27.351562 8.03125 27.1875 8 27.011719 8.011719 Z M 31.152344 11.035156 C 30.953125 11.03125 30.769531 11.082031 30.601562 11.183594 C 30.429688 11.289062 30.304688 11.429688 30.21875 11.605469 C 30.132812 11.78125 30.101562 11.96875 30.125 12.164062 C 30.148438 12.359375 30.226562 12.53125 30.351562 12.683594 L 33.925781 17.09375 L 30.351562 21.5 C 30.265625 21.605469 30.207031 21.722656 30.167969 21.851562 C 30.128906 21.980469 30.117188 22.109375 30.132812 22.242188 C 30.148438 22.375 30.1875 22.5 30.253906 22.617188 C 30.320312 22.734375 30.40625 22.835938 30.511719 22.917969 C 30.617188 23.003906 30.734375 23.0625 30.863281 23.101562 C 30.996094 23.136719 31.128906 23.148438 31.261719 23.132812 C 31.398438 23.117188 31.523438 23.078125 31.644531 23.015625 C 31.761719 22.949219 31.863281 22.867188 31.949219 22.761719 L 36.035156 17.722656 C 36.183594 17.539062 36.257812 17.328125 36.257812 17.09375 C 36.257812 16.855469 36.183594 16.644531 36.035156 16.460938 L 31.949219 11.421875 C 31.746094 11.167969 31.480469 11.035156 31.152344 11.035156 Z M 16.816406 11.035156 C 16.503906 11.046875 16.246094 11.175781 16.050781 11.421875 L 11.964844 16.460938 C 11.816406 16.644531 11.742188 16.855469 11.742188 17.09375 C 11.742188 17.328125 11.816406 17.539062 11.964844 17.722656 L 16.050781 22.761719 C 16.136719 22.863281 16.238281 22.949219 16.355469 23.015625 C 16.476562 23.078125 16.601562 23.117188 16.738281 23.132812 C 16.871094 23.148438 17.003906 23.136719 17.132812 23.097656 C 17.265625 23.0625 17.382812 23 17.488281 22.917969 C 17.59375 22.835938 17.679688 22.734375 17.746094 22.617188 C 17.8125 22.5 17.851562 22.375 17.867188 22.242188 C 17.878906 22.109375 17.871094 21.980469 17.832031 21.851562 C 17.792969 21.722656 17.734375 21.605469 17.648438 21.5 L 14.074219 17.09375 L 17.648438 12.683594 C 17.777344 12.53125 17.851562 12.355469 17.875 12.15625 C 17.898438 11.960938 17.863281 11.773438 17.773438 11.59375 C 17.683594 11.414062 17.554688 11.277344 17.378906 11.175781 C 17.207031 11.074219 17.019531 11.027344 16.816406 11.035156 Z M 41.363281 31.199219 C 41.929688 31.199219 42.386719 31.652344 42.386719 32.207031 C 42.386719 32.765625 41.929688 33.214844 41.363281 33.214844 C 40.800781 33.214844 40.34375 32.765625 40.34375 32.207031 C 40.34375 31.652344 40.800781 31.199219 41.363281 31.199219 Z M 17.871094 38.253906 L 17.871094 40.269531 L 14.808594 40.269531 C 13.113281 40.269531 11.742188 41.625 11.742188 43.292969 L 11.742188 44.300781 C 11.742188 44.859375 12.199219 45.308594 12.765625 45.308594 L 35.234375 45.308594 C 35.800781 45.308594 36.257812 44.859375 36.257812 44.300781 L 36.257812 43.292969 C 36.257812 41.625 34.886719 40.269531 33.191406 40.269531 L 30.128906 40.269531 L 30.128906 38.253906 Z M 17.871094 38.253906 "/>
</g>
</g>
03 243.281Z" fill="white"/>
</svg>
