<?xml version="1.0" encoding="UTF-8"?>
<svg xmlns="http://www.w3.org/2000/svg" xmlns:xlink="http://www.w3.org/1999/xlink" width="48pt" height="48pt" viewBox="0 0 48 48" version="1.2">
<defs>
<clipPath id="clip1">
  <path d="M 4.515625 0 L 43.453125 0 L 43.453125 47 L 4.515625 47 Z M 4.515625 0 "/>
</clipPath>
</defs>
<g id="surface1">
<g clip-path="url(#clip1)" clip-rule="nonzero">
<path style=" stroke:none;fill-rule:nonzero;fill:rgb(100%,100%,100%);fill-opacity:1;" d="M 21.9375 46.066406 C 22.449219 46.578125 23.179688 46.945312 23.984375 46.945312 L 24.058594 46.945312 C 24.863281 46.945312 25.59375 46.652344 26.109375 46.066406 L 42.355469 29.808594 C 43.453125 28.710938 43.453125 26.878906 42.355469 25.707031 L 40.234375 23.582031 C 39.722656 23.070312 38.988281 22.703125 38.183594 22.703125 C 37.378906 22.703125 36.722656 22.996094 36.136719 23.582031 L 28.375 31.347656 L 28.375 2.929688 C 28.375 1.394531 27.058594 0.0742188 25.449219 0.0742188 L 22.519531 0.0742188 C 20.910156 0.0742188 19.59375 1.394531 19.59375 2.929688 L 19.59375 31.347656 L 11.835938 23.582031 C 11.324219 23.070312 10.589844 22.703125 9.785156 22.703125 C 8.980469 22.703125 8.320312 22.996094 7.738281 23.582031 L 5.613281 25.707031 C 4.515625 26.804688 4.515625 28.710938 5.613281 29.808594 Z M 6.710938 26.734375 L 8.835938 24.609375 C 9.128906 24.316406 9.492188 24.167969 9.859375 24.167969 C 10.226562 24.167969 10.589844 24.316406 10.882812 24.609375 L 19.886719 33.617188 C 20.105469 33.835938 20.398438 33.910156 20.691406 33.761719 C 20.984375 33.617188 21.128906 33.398438 21.128906 33.105469 L 21.128906 2.929688 C 21.058594 2.199219 21.714844 1.539062 22.519531 1.539062 L 25.449219 1.539062 C 26.253906 1.539062 26.914062 2.199219 26.914062 2.929688 L 26.914062 33.105469 C 26.914062 33.398438 27.058594 33.691406 27.351562 33.761719 C 27.644531 33.910156 27.9375 33.835938 28.15625 33.617188 L 37.160156 24.609375 C 37.671875 24.097656 38.625 24.097656 39.210938 24.609375 L 41.332031 26.734375 C 41.917969 27.320312 41.917969 28.199219 41.332031 28.785156 L 25.011719 45.042969 C 24.71875 45.335938 24.71875 45.480469 23.984375 45.480469 L 23.984375 46.214844 L 23.914062 45.480469 C 23.546875 45.480469 23.179688 45.335938 22.886719 45.042969 L 6.710938 28.785156 C 6.125 28.199219 6.125 27.320312 6.710938 26.734375 Z M 6.710938 26.734375 "/>
</g>
</g>
</svg>
