<?xml version="1.0" encoding="UTF-8"?>
<svg xmlns="http://www.w3.org/2000/svg" xmlns:xlink="http://www.w3.org/1999/xlink" width="48pt" height="48pt" viewBox="0 0 48 48" version="1.2">
<defs>
<clipPath id="clip1">
  <path d="M 0.488281 0 L 47.507812 0 L 47.507812 47.019531 L 0.488281 47.019531 Z M 0.488281 0 "/>
</clipPath>
</defs>
<g id="surface1">
<g clip-path="url(#clip1)" clip-rule="nonzero">
<path style=" stroke:none;fill-rule:nonzero;fill:rgb(0.389099%,46.669006%,70.979309%);fill-opacity:1;" d="M 44.027344 0 L 3.960938 0 C 2.046875 0 0.488281 1.519531 0.488281 3.386719 L 0.488281 43.625 C 0.488281 45.5 2.046875 47.019531 3.960938 47.019531 L 44.03125 47.019531 C 45.949219 47.019531 47.511719 45.5 47.511719 43.625 L 47.511719 3.386719 C 47.511719 1.519531 45.949219 0 44.027344 0 Z M 44.027344 0 "/>
</g>
<path style=" stroke:none;fill-rule:nonzero;fill:rgb(100%,100%,100%);fill-opacity:1;" d="M 7.460938 17.628906 L 14.449219 17.628906 L 14.449219 40.066406 L 7.460938 40.066406 Z M 10.949219 6.460938 C 13.179688 6.460938 14.992188 8.273438 14.992188 10.5 C 14.992188 12.730469 13.179688 14.546875 10.953125 14.546875 C 10.6875 14.546875 10.421875 14.519531 10.164062 14.46875 C 9.902344 14.414062 9.648438 14.339844 9.40625 14.238281 C 9.160156 14.136719 8.925781 14.011719 8.707031 13.863281 C 8.484375 13.714844 8.28125 13.546875 8.09375 13.359375 C 7.90625 13.171875 7.738281 12.96875 7.589844 12.746094 C 7.441406 12.527344 7.316406 12.292969 7.214844 12.046875 C 7.113281 11.804688 7.035156 11.550781 6.984375 11.289062 C 6.933594 11.03125 6.90625 10.765625 6.90625 10.5 C 6.90625 10.234375 6.929688 9.972656 6.984375 9.710938 C 7.035156 9.453125 7.113281 9.199219 7.214844 8.953125 C 7.316406 8.710938 7.441406 8.476562 7.585938 8.253906 C 7.734375 8.035156 7.902344 7.832031 8.089844 7.644531 C 8.277344 7.457031 8.484375 7.289062 8.703125 7.140625 C 8.925781 6.992188 9.15625 6.867188 9.402344 6.765625 C 9.648438 6.664062 9.902344 6.589844 10.160156 6.539062 C 10.421875 6.484375 10.683594 6.460938 10.949219 6.460938 M 18.8125 17.628906 L 25.5 17.628906 L 25.5 20.695312 L 25.59375 20.695312 C 26.523438 18.929688 28.800781 17.070312 32.203125 17.070312 C 39.265625 17.070312 40.570312 21.71875 40.570312 27.757812 L 40.570312 40.066406 L 33.601562 40.066406 L 33.601562 29.152344 C 33.601562 26.550781 33.554688 23.203125 29.976562 23.203125 C 26.347656 23.203125 25.789062 26.039062 25.789062 28.960938 L 25.789062 40.0625 L 18.820312 40.0625 L 18.820312 17.625 Z M 18.8125 17.628906 "/>
</g>
</svg>
